<!-- Generated by IcoMoon.io -->
<svg version="1.1" xmlns="http://www.w3.org/2000/svg" width="512" height="512" viewBox="0 0 512 512">
<title></title>
<g id="icomoon-ignore">
</g>
<path fill="#4f4f4f" d="M405.334 362.666h-298.666c-23.531 0-42.666 19.136-42.666 42.666s19.136 42.666 42.666 42.666h298.666c23.531 0 42.666-19.136 42.666-42.666s-19.136-42.666-42.666-42.666z"></path>
<path fill="#4f4f4f" d="M405.334 213.333h-298.666c-23.531 0-42.666 19.136-42.666 42.667s19.136 42.666 42.666 42.666h298.666c23.531 0 42.666-19.136 42.666-42.666s-19.136-42.666-42.666-42.666z"></path>
<path fill="#4f4f4f" d="M405.334 64h-298.666c-23.531 0-42.666 19.136-42.666 42.666s19.136 42.666 42.666 42.666h298.666c23.531 0 42.666-19.136 42.666-42.666s-19.136-42.666-42.666-42.666z"></path>
</svg>
